<?xml version="1.0" encoding="UTF-8"?>
<svg width="80px" height="72px" viewBox="0 0 80 72" version="1.1" xmlns="http://www.w3.org/2000/svg" xmlns:xlink="http://www.w3.org/1999/xlink">
    <!-- Generator: Sketch 51.3 (57544) - http://www.bohemiancoding.com/sketch -->
    <title>Group 79</title>
    <desc>Created with Sketch.</desc>
    <defs>
        <polygon id="path-1" points="0 0.0670210052 45.6465085 0.0670210052 45.6465085 12.9013114 0 12.9013114"></polygon>
        <polygon id="path-3" points="0.0134237288 0.625559322 79.7864407 0.625559322 79.7864407 31.2845733 0.0134237288 31.2845733"></polygon>
    </defs>
    <g id="Page-1" stroke="none" stroke-width="1" fill="none" fill-rule="evenodd">
        <g id="登录" transform="translate(-148.000000, -129.000000)">
            <g id="Group-79" transform="translate(148.000000, 129.000000)">
                <path d="M76.0176271,35.5827797 C76.0176271,55.2343051 60.0867797,71.1644746 40.4366102,71.1644746 C20.7844068,71.1644746 4.85355932,55.2343051 4.85355932,35.5827797 C4.85355932,15.9305763 20.7844068,0.000406779661 40.4366102,0.000406779661 C60.0867797,0.000406779661 76.0176271,15.9305763 76.0176271,35.5827797" id="Fill-1" fill="#FEFEFE"></path>
                <path d="M23.3289492,22.0006102 C27.3411525,16.9850169 33.512,13.7680678 40.4367458,13.7680678 C45.8279322,13.7680678 50.7614915,15.7165424 54.5750508,18.9490847 C58.7418305,17.7212881 63.1791186,17.024339 66.9865763,17.7863729 C61.251661,9.24128814 51.4977627,3.62162712 40.4367458,3.62162712 C28.9391186,3.62162712 18.8570847,9.69755932 13.2286102,18.8107797 C15.4503051,18.9653559 19.1791186,19.6189153 23.3289492,22.0006102" id="Fill-3" fill="#E95705"></path>
                <path d="M52.8509153,53.7080678 C52.7051525,53.8070508 52.5607458,53.9026441 52.4115932,54.0023051 C52.3519322,54.0416271 52.2895593,54.0850169 52.2231186,54.1209492 C48.8204068,56.303322 44.7749831,57.5717966 40.436678,57.5717966 C31.6726102,57.5717966 25.3390508,51.7141695 20.6129492,44.9914576 C14.6807458,36.5514576 11.6868475,32.9887458 8.96820339,30.0334915 C8.65227119,31.8362034 8.47328814,33.6884068 8.47328814,35.5812881 C8.47328814,53.2328136 22.7844746,67.543322 40.436678,67.543322 C58.0841356,67.543322 72.3980339,53.2328136 72.3980339,35.5812881 C72.3980339,34.5202712 72.3424407,33.4707797 72.2407458,32.4375593 C64.7376949,38.4965424 60.6434576,48.3792542 52.8509153,53.7080678" id="Fill-5" fill="#E95705"></path>
                <path d="M15.0383729,46.1962034 C15.0383729,46.1962034 12.2614237,42.5053559 12.4058305,37.8558644" id="Stroke-7" stroke="#F4F4F4" stroke-width="0.762" stroke-linecap="round" stroke-linejoin="round"></path>
                <path d="M66.4949831,46.1962034 C66.4949831,46.1962034 69.276,42.5053559 69.1261695,37.8558644" id="Stroke-9" stroke="#F4F4F4" stroke-width="0.762" stroke-linecap="round" stroke-linejoin="round"></path>
                <path d="M52.448339,33.3850169 L56.7717288,35.9768814 C58.1208814,34.4717966 68.387322,23.4426441 78.8930847,25.7416271 C78.8930847,25.7416271 78.7249492,25.484 78.2930847,25.2094237 C70.9120678,20.5368814 60.627322,26.203322 52.448339,33.3850169" id="Fill-11" fill="#C6D700"></path>
                <path d="M47.1385085,30.1428475 L51.7290169,32.9164068 C66.5771525,19.3781017 76.1981695,23.5882712 76.1981695,23.5882712 C67.6612203,15.792339 50.0144407,28.0486102 47.1385085,30.1428475" id="Fill-13" fill="#E62B10"></path>
                <path d="M42.7118644,27.4839322 L46.3030508,29.6541017 C64.5125424,17.0608814 72.28,21.0493559 72.28,21.0493559 C62.8759322,14.7456271 45.0122034,25.9856271 42.7118644,27.4839322" id="Fill-15" fill="#00A0E8"></path>
                <path d="M45.5031864,30.1553898 C37.6353898,36.5872542 29.9825085,31.2258983 26.5940339,28.7655593 C8.7540339,15.8286102 0.00691525424,23.9750508 0.00691525424,23.9750508 C7.32759322,20.2536949 19.1750508,23.9153898 25.1506441,31.1465763 C37.7262373,46.3675932 49.2652203,35.5309831 51.1479322,33.5669153 L45.5031864,30.1553898 Z" id="Fill-17" fill="#FBC900"></path>
                <g id="Group-21" transform="translate(0.000000, 20.317288)">
                    <mask id="mask-2" fill="white">
                        <use xlink:href="#path-1"></use>
                    </mask>
                    <g id="Clip-20"></g>
                    <path d="M26.5943051,8.46162712 C29.9827797,10.9212881 37.6349831,16.284 45.5034576,9.85213559 L45.6424407,9.93755932 C45.6424407,9.93755932 45.6465085,9.93755932 45.6465085,9.93416949 L41.8858305,7.65891525 C39.2282034,9.79586441 34.3604068,10.403322 26.0105763,5.39383051 C7.86549153,-5.48210169 -0.000271186441,3.66433898 -0.000271186441,3.66433898 C0.0132881356,3.65349153 0.022779661,3.65077966 0.0370169492,3.644 C0.618711864,3.13823729 9.36447458,-4.03328814 26.5943051,8.46162712" id="Fill-19" fill="#F19100" mask="url(#mask-2)"></path>
                </g>
                <path d="M51.1414237,33.5538305 C51.1414237,33.5538305 51.1346441,33.5565424 51.1346441,33.5606102 L51.1482034,33.5673898 C49.2648136,35.5307797 37.7265085,46.3673898 25.1509153,31.1463729 C19.1949831,23.9382373 7.40311864,20.2765424 0.0797288136,23.9450169 C0.928542373,23.8690847 15.7841356,22.723322 22.7265085,33.7416271 C24.8302373,37.2419661 32.2431186,47.5341695 44.0648136,44.6250169 C50.9095593,42.9409492 56.2885424,36.6738305 56.2885424,36.6738305 L51.1414237,33.5538305 Z" id="Fill-22" fill="#EE7A00"></path>
                <path d="M0.0503050847,23.9385085 C0.0421694915,23.9418983 0.0367457627,23.948 0.0367457627,23.948 L0.0408135593,23.948 C0.0421694915,23.9452881 0.0421694915,23.9418983 0.0503050847,23.9385085" id="Fill-24" fill="#EE7A00"></path>
                <g id="Group-28" transform="translate(0.000000, 23.029153)">
                    <mask id="mask-4" fill="white">
                        <use xlink:href="#path-3"></use>
                    </mask>
                    <g id="Clip-27"></g>
                    <path d="M56.2778305,15.8703051 C39.5063051,38.9014915 26.2235932,17.8343729 22.8602034,10.9008136 C22.8168136,10.8377627 22.7768136,10.772 22.7435932,10.7130169 C15.7971525,-0.305288136 0.945627119,0.83979661 0.0927457627,0.915728814 C0.294101695,0.813355932 0.505627119,0.717084746 0.717830508,0.625559322 C0.269016949,0.816745763 0.0134237288,0.939457627 0.0134237288,0.939457627 C0.0134237288,0.939457627 7.10562712,0.612 13.408678,8.64861017 C22.3612203,20.0601356 28.968678,31.8947119 41.3998644,31.2601356 C60.7849492,30.2764068 60.1578305,8.41810169 79.7869831,3.40183051 C73.4256271,1.08386441 63.0174915,6.12250847 56.2778305,15.8703051" id="Fill-26" fill="#E95705" mask="url(#mask-4)"></path>
                </g>
                <path d="M21.9848814,54.9303051 C22.011322,55.0292881 21.991661,55.112 21.9225085,55.1709831 C21.8960678,55.1947119 21.8587797,55.2109831 21.8167458,55.2211525 C21.7164068,55.2442034 21.6404746,55.2211525 21.5848814,55.1581017 C21.5584407,55.1248814 21.5401356,55.0787797 21.5292881,55.0258983 C21.4038644,54.451661 21.4235254,53.8794576 21.5848814,53.3025085 C21.6025085,53.2530169 21.6275932,53.2096271 21.6567458,53.1770847 C21.7150508,53.1303051 21.7794576,53.1275932 21.8587797,53.1642034 C21.9055593,53.1865763 21.9428475,53.2136949 21.9652203,53.2394576 C22.0031864,53.2889492 22.0181017,53.3452203 22.0031864,53.411661 C21.8669153,53.9431864 21.8587797,54.451661 21.9848814,54.9303051 Z M20.5069153,51.0075932 C20.1401356,50.9974237 19.8092881,50.9411525 19.511661,50.8394576 C19.4560678,50.8252203 19.4025085,50.7953898 19.3631864,50.7465763 C19.3164068,50.6903051 19.3008136,50.6238644 19.3204746,50.5479322 C19.3340339,50.4889492 19.3591186,50.4401356 19.3991186,50.3994576 C19.4560678,50.3499661 19.5272542,50.3370847 19.6106441,50.3601356 C20.1747119,50.5682712 20.691322,50.6177627 21.1557288,50.5092881 C21.2458983,50.4957288 21.3211525,50.5255593 21.3774237,50.592 C21.3903051,50.6075932 21.4058983,50.6306441 21.4275932,50.6679322 C21.4791186,50.7736949 21.472339,50.8550508 21.4038644,50.9181017 C21.3774237,50.9377627 21.3442034,50.951322 21.3042034,50.9614915 C21.1821695,50.9811525 21.0858983,50.9940339 21.0248814,50.9940339 L23.1475932,53.4774237 C23.3686102,53.7418305 23.3842034,53.9533559 23.1936949,54.1181017 C23.1252203,54.1777627 23.0282712,54.2170847 22.911661,54.2401356 C22.6852203,54.2767458 22.4797966,54.2828475 22.3028475,54.2631864 C22.2255593,54.2570847 22.1665763,54.2340339 22.1238644,54.1872542 C22.0906441,54.1479322 22.0736949,54.091661 22.0818305,54.0252203 C22.0865763,53.9560678 22.1109831,53.9065763 22.1543729,53.8706441 C22.1848814,53.8408136 22.2255593,53.8272542 22.2764068,53.8272542 C22.4892881,53.8374237 22.6418305,53.8408136 22.7252203,53.8374237 C22.7658983,53.8374237 22.8004746,53.8306441 22.8201356,53.8103051 C22.8492881,53.7872542 22.8404746,53.7445424 22.7936949,53.6848814 L21.7252203,52.4333559 L20.6872542,53.3187797 C20.5231864,53.4611525 20.3706441,53.5201356 20.2357288,53.5004746 C20.1021695,53.4801356 19.9604746,53.3784407 19.8025085,53.1967458 C19.6675932,53.0381017 19.5645424,52.892339 19.4953898,52.7642034 C19.4411525,52.6686102 19.4560678,52.5858983 19.5414915,52.5133559 C19.5604746,52.4964068 19.5733559,52.4869153 19.5869153,52.4801356 C19.6899661,52.4143729 19.7747119,52.4238644 19.8479322,52.5099661 C19.8648814,52.5296271 19.8757288,52.5431864 19.8784407,52.5560678 C19.9367458,52.6686102 20.0106441,52.7709831 20.0886102,52.8665763 C20.1625085,52.952 20.2208136,52.9981017 20.2703051,53.0048814 C20.312339,53.011661 20.3733559,52.9886102 20.4486102,52.9289492 L21.4330169,52.0909831 L20.5069153,51.0075932 Z M19.6831864,55.8577627 C19.6831864,55.9303051 19.6675932,55.9831864 19.6262373,56.0225085 C19.5936949,56.0530169 19.5550508,56.0658983 19.511661,56.0658983 C19.4492881,56.0794576 19.3950508,56.0591186 19.3564068,56.0103051 C19.3299661,55.9804746 19.3130169,55.9438644 19.3035254,55.8977627 C19.2811525,55.7587797 19.2465763,55.5743729 19.1977627,55.3397966 C19.1882712,55.2835254 19.2038644,55.2367458 19.2452203,55.1981017 C19.2770847,55.1682712 19.3204746,55.1540339 19.3733559,55.151322 C19.431661,55.1540339 19.4784407,55.1777627 19.5150508,55.2177627 C19.5340339,55.2442034 19.5509831,55.2699661 19.5604746,55.2997966 C19.6303051,55.5242034 19.6703051,55.7092881 19.6831864,55.8577627 Z M18.7089492,51.7208136 C18.6601356,51.7011525 18.6201356,51.6740339 18.5869153,51.6448814 C18.531322,51.5791186 18.5211525,51.4991186 18.5604746,51.4069153 C18.5781017,51.3601356 18.6004746,51.3248814 18.6296271,51.3011525 C18.6967458,51.2448814 18.7753898,51.2387797 18.8703051,51.2848814 C19.3340339,51.4828475 19.8248814,51.552678 20.3496271,51.4896271 C20.4194576,51.4828475 20.4777627,51.5092881 20.5258983,51.5621695 C20.552339,51.591322 20.5679322,51.631322 20.5787797,51.6740339 C20.6038644,51.7567458 20.5855593,51.8299661 20.5191186,51.8889492 C20.4831864,51.9221695 20.4425085,51.9350508 20.3957288,51.932339 C19.7787797,51.9845424 19.2174237,51.9153898 18.7089492,51.7208136 Z M17.972678,52.0109831 C17.9014915,51.932339 17.9130169,51.8496271 18.012678,51.7635254 C18.1075932,51.6808136 18.1936949,51.6808136 18.2642034,51.7635254 L21.3970847,55.4353898 C21.4696271,55.5174237 21.452678,55.6001356 21.3584407,55.6821695 C21.2581017,55.7689492 21.172,55.7689492 21.1069153,55.6862373 L19.6831864,54.0184407 L19.3008136,54.3458983 L20.4730169,55.7194576 C20.5428475,55.8014915 20.5299661,55.8842034 20.4330169,55.9703051 C20.3347119,56.0530169 20.251322,56.0530169 20.1787797,55.9703051 L19.0052203,54.5967458 L18.5035254,55.0231864 L20.0757288,56.8652203 C20.1455593,56.9479322 20.1286102,57.0306441 20.0303051,57.1167458 C19.9272542,57.2048814 19.8384407,57.2082712 19.7679322,57.1255593 L16.3414915,53.1106441 C16.272339,53.0279322 16.2886102,52.9425085 16.391661,52.8536949 C16.4933559,52.7709831 16.5794576,52.7675932 16.6486102,52.8503051 L18.2201356,54.6896271 L18.7225085,54.2631864 L17.572678,52.912678 C17.5014915,52.8333559 17.5170847,52.7506441 17.6153898,52.671322 C17.7157288,52.5892881 17.7977627,52.5858983 17.8642034,52.6652203 L19.0133559,54.012339 L19.3991186,53.6848814 L17.972678,52.0109831 Z" id="Fill-29" fill="#FEFEFE"></path>
                <path d="M27.2669831,59.203322 C26.9544407,59.3938305 26.647322,59.5531525 26.3490169,59.684678 C26.2988475,59.7084068 26.2751186,59.7273898 26.2635932,59.7409492 C26.2513898,59.7707797 26.2696949,59.8107797 26.3266441,59.8568814 C26.6324068,60.1572203 26.947661,60.4772203 27.2642712,60.8141695 C27.6046102,60.7382373 27.9313898,60.5965424 28.2412203,60.3917966 C28.3408814,60.3219661 28.5049492,60.1863729 28.7300339,59.9850169 L27.2669831,59.203322 Z M30.6968136,58.6941695 C31.008,58.8629831 31.0859661,59.1009492 30.9205424,59.4073898 L30.6425763,59.9260339 C30.5829153,60.0351864 30.4832542,60.0514576 30.3402034,59.9687458 C30.1957966,59.8934915 30.1496949,59.8006102 30.2066441,59.6975593 L30.4412203,59.2589153 C30.4968136,59.1531525 30.4703729,59.0711186 30.3551186,59.0114576 L26.8974915,57.1585763 C26.7822373,57.0962034 26.6974915,57.1192542 26.6432542,57.2277288 L26.408678,57.6670508 C26.3530847,57.7734915 26.2541017,57.7863729 26.108339,57.704339 C25.9652881,57.6284068 25.9205424,57.5348475 25.9761356,57.4297627 L26.2568136,56.9117966 C26.4195254,56.604 26.6602034,56.5341695 26.9727458,56.7029831 L28.5964746,57.5680678 L28.8032542,57.1789153 C28.8649492,57.0602712 28.9659661,57.043322 29.107661,57.123322 C29.2452881,57.1985763 29.287322,57.2907797 29.2269831,57.403322 L29.0174915,57.7958644 L30.6968136,58.6941695 Z M29.1802034,60.2263729 C28.9090169,60.4772203 28.7103729,60.6453559 28.5829153,60.7382373 C28.288,60.9267119 27.9646102,61.0785763 27.6113898,61.1965424 C28.1130847,61.7714576 28.5246102,62.3104407 28.8520678,62.8114576 C28.9117288,62.8880678 28.9185085,62.9667119 28.8730847,63.0528136 C28.8520678,63.0921356 28.8161356,63.1287458 28.7659661,63.1585763 C28.6771525,63.2175593 28.5964746,63.224339 28.5185085,63.1816271 C28.4771525,63.1585763 28.4364746,63.1219661 28.4032542,63.0663729 C28.0602034,62.5117966 27.6310508,61.9301017 27.1144407,61.3226441 C26.3266441,61.4582373 25.4134237,61.3558644 24.3713898,61.0155254 L24.3442712,61.0019661 C24.2202034,60.9368814 24.1802034,60.8372203 24.2242712,60.7050169 C24.2269831,60.6914576 24.2371525,60.6724746 24.2466441,60.6528136 C24.3090169,60.5301017 24.4012203,60.4934915 24.5137627,60.543661 C25.3761356,60.8304407 26.1178305,60.9497627 26.7490169,60.9002712 C26.4195254,60.5463729 26.1029153,60.2304407 25.7944407,59.9456949 C25.6690169,59.8399322 25.6459661,59.7145085 25.7259661,59.5694237 C25.7693559,59.4867119 25.8357966,59.4270508 25.9266441,59.3911186 C26.1971525,59.2819661 26.488678,59.1362034 26.808678,58.9585763 L25.5998644,58.3117966 C25.4981695,58.2555254 25.4818983,58.163322 25.5537627,58.0338305 C25.6235932,57.9016271 25.7096949,57.8650169 25.808,57.924678 L27.2391864,58.6914576 C27.5029153,58.5097627 27.7368136,58.324 27.9408814,58.1395932 C28.0202034,58.0629831 28.1022373,58.0507797 28.1822373,58.0962034 C28.207322,58.1097627 28.2324068,58.1334915 28.2629153,58.163322 C28.3544407,58.2521356 28.3768136,58.3416271 28.3300339,58.4297627 C28.3144407,58.4629831 28.288,58.4894237 28.2520678,58.5097627 C28.0642712,58.664339 27.8744407,58.8026441 27.6934237,58.9321356 L30.3402034,60.3517966 C30.447322,60.4080678 30.4635932,60.5002712 30.3971525,60.6263729 C30.3300339,60.7578983 30.2398644,60.7945085 30.1341017,60.7382373 L29.1802034,60.2263729 Z" id="Fill-31" fill="#FEFEFE"></path>
                <path d="M39.1989153,60.0514576 C39.2477288,60.0548475 39.2972203,60.084678 39.3406102,60.1341695 C39.3765424,60.1795932 39.3934915,60.2365424 39.3853559,60.2955254 C39.3792542,60.3517966 39.3589153,60.404678 39.3209492,60.4575593 C39.1724746,60.6223051 39.0138305,60.7775593 38.844339,60.9301017 C38.784678,60.9789153 38.7223051,61.0284068 38.6490847,61.0751864 L39.7880678,61.2073898 C39.9338305,61.223661 39.9962034,61.3029831 39.9799322,61.444678 C39.964339,61.5870508 39.8850169,61.6528136 39.743322,61.6365424 L37.7317966,61.4053559 C37.7317966,61.4189153 37.7358644,61.4250169 37.7358644,61.4317966 L37.5887458,62.6765424 L39.8341695,62.9341695 C39.9772203,62.9497627 40.0395932,63.0297627 40.0253559,63.1714576 C40.0063729,63.3334915 39.9270508,63.4026441 39.7826441,63.3863729 L37.5982373,63.1389153 C37.6260339,63.3301017 37.6816271,63.5321356 37.7717966,63.7368814 C37.9107797,64.0562034 38.1317966,64.343661 38.4416271,64.6019661 C38.7155254,64.8324746 39.1311186,65.043322 39.6877288,65.2385763 C39.7948475,65.2745085 39.843661,65.3504407 39.8341695,65.4731525 C39.8145085,65.6121356 39.7256949,65.6819661 39.5670508,65.684678 C39.0721356,65.5226441 38.6707797,65.3273898 38.3582373,65.1029831 C38.0551864,64.9016271 37.8002712,64.6277288 37.5968814,64.284678 C37.4178983,64.0304407 37.3094237,63.7334915 37.2680678,63.3904407 C37.1412881,63.7165424 36.9528136,64.004 36.6985763,64.2453559 C36.4606102,64.5023051 36.1521356,64.7002712 35.7758644,64.8392542 C35.4172203,65.0012881 35.0016271,65.0901017 34.524339,65.1070508 C34.3826441,65.0806102 34.304678,64.9978983 34.2877288,64.8623051 C34.3114576,64.6907797 34.4097627,64.6141695 34.5812881,64.6311186 C35.063322,64.5911186 35.4897627,64.4819661 35.8524746,64.303661 C36.2660339,64.1029831 36.5928136,63.7985763 36.8328136,63.3931525 C36.9026441,63.2772203 36.9555254,63.1687458 36.9941695,63.0690847 L34.7670508,62.8155254 C34.6212881,62.7992542 34.5575593,62.7097627 34.5792542,62.5517966 C34.5948475,62.4060339 34.6741695,62.3429831 34.8158644,62.3592542 L37.1080678,62.623661 L37.2497627,61.3748475 C37.2538305,61.3653559 37.2538305,61.3592542 37.2592542,61.3517966 L35.2050169,61.1178983 C35.0606102,61.1016271 34.9934915,61.0189153 35.0104407,60.8765424 C35.0280678,60.7355254 35.1087458,60.6724746 35.2558644,60.6887458 L36.5623051,60.8372203 C36.4077288,60.6094237 36.2395932,60.3917966 36.063322,60.1795932 C36.0382373,60.1178983 36.0287458,60.0778983 36.0287458,60.0582373 C36.0490847,59.8962034 36.1358644,59.8270508 36.2951864,59.8467119 C36.3358644,59.8501017 36.3785763,59.8799322 36.423322,59.9321356 C36.6090847,60.124 36.7772203,60.3321356 36.9331525,60.5667119 C36.9623051,60.6263729 36.9717966,60.6751864 36.9677288,60.7212881 C36.9582373,60.8006102 36.9290847,60.8507797 36.8802712,60.8738305 L38.0416271,61.0053559 C38.1609492,60.9267119 38.2694237,60.844 38.3656949,60.7545085 C38.5901017,60.5565424 38.7975593,60.3477288 38.9880678,60.124 C39.0389153,60.0650169 39.1073898,60.0412881 39.1989153,60.0514576" id="Fill-33" fill="#FEFEFE"></path>
                <path d="M47.0418305,63.1983051 C47.2709831,63.3562712 47.5184407,63.4722034 47.7903051,63.5420339 C47.9292881,63.5779661 48.0770847,63.6077966 48.2350508,63.6274576 C48.2614915,63.6077966 48.2811525,63.5942373 48.2974237,63.580678 C48.5882712,63.3271186 48.7828475,63.0823729 48.8892881,62.8477966 C48.9272542,62.7589831 48.9489492,62.7061017 48.9448814,62.6959322 L47.0418305,63.1983051 Z M49.1869153,61.3223729 C49.3035254,61.2898305 49.3814915,61.3325424 49.4133559,61.4552542 C49.4506441,61.5935593 49.4106441,61.6789831 49.2886102,61.7088136 L46.6886102,62.3955932 C46.7082712,62.5705085 46.7184407,62.7352542 46.7184407,62.8905085 L48.9489492,62.3033898 C49.1964068,62.2511864 49.3496271,62.339322 49.4106441,62.5738983 C49.4038644,62.6369492 49.3774237,62.7461017 49.3340339,62.8979661 C49.2187797,63.1847458 49.0438644,63.4457627 48.8106441,63.680339 C48.8296271,63.6830508 48.8492881,63.6871186 48.8587797,63.6871186 C49.2018305,63.699322 49.7394576,63.6667797 50.4736949,63.5840678 C50.5801356,63.5942373 50.6425085,63.6437288 50.6689492,63.7332203 C50.6953898,63.8681356 50.6425085,63.960339 50.5096271,64.0037288 C50.3882712,64.0328814 50.131322,64.06 49.7340339,64.0769492 C49.2479322,64.1067797 48.8560678,64.1027119 48.5550508,64.0667797 C48.4960678,64.06 48.4425085,64.0566102 48.3964068,64.0505085 C48.0140339,64.3610169 47.5184407,64.6776271 46.9109831,65.0044068 C46.8642034,65.0267797 46.8309831,65.0410169 46.8086102,65.0477966 C46.6764068,65.0708475 46.5808136,65.0308475 46.5265763,64.9216949 C46.5042034,64.7962712 46.5265763,64.700678 46.6072542,64.6274576 C47.0865763,64.3867797 47.4791186,64.1623729 47.7903051,63.9576271 C47.772678,63.9542373 47.7557288,63.9474576 47.7435254,63.9447458 C47.4458983,63.8620339 47.1977627,63.7630508 46.9997966,63.6505085 C46.8845424,63.580678 46.7821695,63.5013559 46.6831864,63.4159322 C46.6194576,63.8030508 46.5109831,64.1257627 46.3557288,64.3840678 C46.1692881,64.7074576 45.9333559,64.9942373 45.6553898,65.2423729 C45.6092881,65.2816949 45.5706441,65.3040678 45.5442034,65.3142373 C45.3747119,65.3576271 45.2662373,65.3020339 45.2262373,65.1427119 C45.2065763,65.0640678 45.2262373,64.9942373 45.2858983,64.9291525 C45.6038644,64.6376271 45.8370847,64.3501695 45.9848814,64.0735593 C46.132,63.8057627 46.2275932,63.4986441 46.2764068,63.1522034 C46.2974237,62.959661 46.3001356,62.7420339 46.2872542,62.5013559 L45.3855593,62.739322 C45.2608136,62.7718644 45.1774237,62.7189831 45.1414915,62.580678 C45.1082712,62.4613559 45.1577627,62.3854237 45.2831864,62.3494915 L46.2431864,62.0986441 C46.2181017,61.9427119 46.1903051,61.7847458 46.1611525,61.6233898 C46.1414915,61.5237288 46.1903051,61.4586441 46.3069153,61.4281356 C46.4486102,61.3915254 46.5347119,61.4376271 46.5679322,61.5630508 C46.5970847,61.6830508 46.6235254,61.8247458 46.6431864,61.9935593 L49.1869153,61.3223729 Z M48.7367458,58.6749153 C48.8730169,58.6410169 48.9604746,58.700678 49.0018305,58.8559322 C49.0309831,58.9718644 48.9645424,59.0640678 48.8031864,59.1366102 C48.7794576,59.1461017 48.7591186,59.1528814 48.7408136,59.159661 C48.7699661,59.1827119 48.792339,59.2159322 48.8106441,59.2525424 C48.8160678,59.2857627 48.812,59.3284746 48.792339,59.3874576 C48.7272542,59.5657627 48.6533559,59.7244068 48.5794576,59.86 C48.4865763,60.0315254 48.3835254,60.1962712 48.2682712,60.3650847 L49.1686102,60.1277966 C49.3286102,60.0844068 49.4635254,60.1108475 49.572,60.200339 C49.6648814,60.2661017 49.7340339,60.3874576 49.7801356,60.5630508 C49.8174237,60.6979661 49.8330169,60.860678 49.8262373,61.0450847 C49.8228475,61.1677966 49.7550508,61.2471186 49.6187797,61.2830508 C49.4797966,61.319661 49.3950508,61.2661017 49.3577627,61.1277966 C49.3631864,60.9 49.3604746,60.7576271 49.3442034,60.7020339 C49.311661,60.5664407 49.2296271,60.5135593 49.0994576,60.5501695 L45.1048814,61.6030508 C44.9828475,61.6362712 44.9367458,61.7128814 44.9652203,61.8308475 L45.0784407,62.2572881 C45.1136949,62.3955932 45.0648814,62.4844068 44.9258983,62.5216949 C44.7909831,62.5583051 44.7062373,62.5054237 44.6662373,62.3657627 L44.5204746,61.8077966 C44.4452203,61.5237288 44.5469153,61.3454237 44.8214915,61.2762712 L45.4052203,61.1216949 C45.2465763,61.0186441 45.071661,60.9230508 44.8831864,60.8342373 C44.7882712,60.8044068 44.7340339,60.7610169 44.7218305,60.7122034 C44.6886102,60.5833898 44.731322,60.5033898 44.8581017,60.4708475 C44.9035254,60.4572881 44.9631864,60.4572881 45.0357288,60.4708475 C45.2499661,60.5732203 45.4452203,60.6816949 45.6194576,60.7976271 C45.6886102,60.8274576 45.732,60.8735593 45.7482712,60.9366102 C45.7584407,60.9759322 45.7611525,61.0057627 45.7550508,61.0288136 L46.8418305,60.7413559 C46.6892881,60.619322 46.5265763,60.5033898 46.3597966,60.3983051 C46.3136949,60.3522034 46.2872542,60.3183051 46.2831864,60.299322 C46.251322,60.1698305 46.3028475,60.0877966 46.4418305,60.0511864 C46.4750508,60.0416949 46.5177627,60.0545763 46.5692881,60.0911864 C46.7265763,60.1840678 46.8818305,60.2959322 47.0296271,60.4240678 C47.0764068,60.4572881 47.1028475,60.4905085 47.1130169,60.520339 C47.1292881,60.5861017 47.1225085,60.639661 47.0879322,60.6749153 L47.892,60.4640678 C47.8614915,60.4444068 47.8364068,60.4172881 47.8167458,60.3915254 C47.7964068,60.3183051 47.8031864,60.2627119 47.8282712,60.2328814 C48.0825085,59.8823729 48.2642034,59.5691525 48.3767458,59.2918644 C48.3808136,59.2884746 48.3808136,59.2823729 48.3808136,59.2789831 C47.9211525,59.4301695 47.3665763,59.6023729 46.7082712,59.800339 C45.7286102,60.1013559 45.0492881,60.3027119 44.6689492,60.4016949 C44.5008136,60.4477966 44.3950508,60.3915254 44.352339,60.2369492 C44.3218305,60.1142373 44.371322,60.0315254 44.5062373,59.9983051 C45.252678,59.7969492 45.9401356,59.5989831 46.5679322,59.4037288 C47.3462373,59.1698305 48.0696271,58.9250847 48.7367458,58.6749153 Z" id="Fill-35" fill="#FEFEFE"></path>
                <path d="M59.5815593,58.0208814 C59.6730847,57.9510508 59.7578305,57.9713898 59.8385085,58.0771525 C59.9191864,58.1856271 59.9137627,58.2751186 59.8188475,58.3442712 L56.0832542,61.108339 C55.9903729,61.1774915 55.9015593,61.1578305 55.8222373,61.048678 C55.7402034,60.9402034 55.748339,60.8507119 55.8418983,60.7842712 L57.4907119,59.5652881 L57.1069831,59.0513898 L56.2303729,59.7015593 C56.1429153,59.7639322 56.0581695,59.7408814 55.9774915,59.6317288 C55.9015593,59.5300339 55.9096949,59.447322 55.9985085,59.387661 L56.8764746,58.7374915 L56.648678,58.4269831 C56.5781695,58.3347797 56.6018983,58.2452881 56.7212203,58.1564746 C56.8391864,58.0663051 56.9347797,58.0703729 57.0046102,58.1632542 L57.2324068,58.4730847 L58.1727458,57.7768136 C58.2588475,57.7103729 58.3435932,57.7300339 58.4147797,57.8296949 C58.4968136,57.9381695 58.4954576,58.0242712 58.4046102,58.0900339 L57.4629153,58.7869831 L57.8466441,59.3015593 L59.5815593,58.0208814 Z M55.4724068,58.3469831 L57.3381695,56.967322 L57.0778305,56.6174915 L55.2120678,57.9944407 L55.4724068,58.3469831 Z M55.0039322,57.7103729 L56.8656271,56.3300339 L56.6154576,55.9930847 L54.7524068,57.3707119 L55.0039322,57.7103729 Z M56.1557966,55.3693559 L54.2900339,56.7496949 L54.5402034,57.0859661 L56.4039322,55.7096949 L56.1557966,55.3693559 Z M57.6988475,56.6995254 L58.5605424,56.0656271 C58.6493559,55.9964746 58.7313898,56.0161356 58.8066441,56.1191864 C58.8900339,56.227661 58.8839322,56.3164746 58.7937627,56.3835932 L57.6961356,57.1985085 C58.1829153,57.267661 58.7381695,57.188339 59.3524068,56.9578305 C59.4581695,56.9144407 59.5341017,56.9341017 59.5910508,57.0141017 C59.6093559,57.0439322 59.6263051,57.0730847 59.6398644,57.1090169 C59.6690169,57.2215593 59.6493559,57.3035932 59.5707119,57.3639322 C59.5429153,57.3802034 59.5137627,57.3964746 59.4744407,57.4134237 C58.6785085,57.6703729 57.9300339,57.7103729 57.228339,57.528678 L56.0100339,58.4269831 C55.9985085,59.1693559 55.7598644,59.8703729 55.2981695,60.5239322 C55.2846102,60.5496949 55.2581695,60.5768136 55.2290169,60.5998644 C55.1402034,60.6622373 55.0568136,60.6656271 54.9761356,60.6032542 C54.9469831,60.5829153 54.9205424,60.5598644 54.9022373,60.5341017 C54.8425763,60.4507119 54.8425763,60.368678 54.9049492,60.2927458 C55.2981695,59.7741017 55.5205424,59.2656271 55.5761356,58.768 L54.5022373,59.5598644 C54.4093559,59.6290169 54.3246102,59.6093559 54.2412203,59.4968136 C54.1659661,59.3937627 54.1761356,59.308339 54.2690169,59.2391864 L55.1151186,58.6113898 L53.9354576,57.0141017 L53.2046102,57.5524068 C53.1157966,57.6181695 53.0324068,57.5985085 52.9544407,57.4859661 C52.8744407,57.3802034 52.8798644,57.2947797 52.967322,57.227661 L53.6954576,56.6900339 L53.467661,56.3863051 C53.4032542,56.2934237 53.4269831,56.2046102 53.547661,56.1191864 C53.6690169,56.0269831 53.7618983,56.0290169 53.8296949,56.1218983 L54.0534237,56.4256271 L55.9164746,55.0459661 L55.6941017,54.748339 C55.6208814,54.6493559 55.647322,54.5605424 55.7707119,54.4744407 C55.8927458,54.3856271 55.987661,54.3856271 56.0581695,54.4812203 L56.2778305,54.7781695 L57.0310508,54.2202034 C57.1212203,54.1544407 57.2059661,54.1741017 57.2866441,54.2798644 C57.367322,54.3951186 57.3612203,54.4812203 57.268339,54.5435932 L56.5164746,55.1015593 L57.6988475,56.6995254 Z" id="Fill-37" fill="#FEFEFE"></path>
                <path d="M64.948339,49.1913898 C64.9829153,49.2144407 65.008,49.2408814 65.0263051,49.2707119 C65.2527458,49.6008814 65.4093559,49.8842712 65.4941017,50.1188475 C65.527322,50.208339 65.5232542,50.2903729 65.4846102,50.3602034 C65.4608814,50.3934237 65.4290169,50.4225763 65.3842712,50.4463051 C65.3191864,50.4788475 65.2527458,50.4761356 65.1930847,50.4402034 C65.1510508,50.4130847 65.1218983,50.3764746 65.0981695,50.3303729 C64.9829153,50.0469831 64.8344407,49.7785085 64.6452881,49.527661 C64.5896949,49.4463051 64.5829153,49.3703729 64.6317288,49.3005424 C64.6554576,49.2612203 64.6859661,49.2313898 64.7178305,49.2110508 C64.7944407,49.148678 64.8690169,49.1425763 64.948339,49.1913898 Z M62.9517288,51.9947797 C62.9978305,51.9181695 63.0602034,51.8822373 63.1395254,51.8863051 C63.4730847,51.8890169 63.7700339,51.9154576 64.0256271,51.968339 C64.0649492,51.9744407 64.1008814,51.988 64.1408814,52.0110508 C64.2202034,52.0639322 64.2493559,52.1371525 64.2269831,52.2361356 C64.2202034,52.2652881 64.2093559,52.2985085 64.1896949,52.3351186 C64.1327458,52.4266441 64.0520678,52.4598644 63.948339,52.4374915 C63.6941017,52.3846102 63.4093559,52.3547797 63.1035932,52.347322 C63.0602034,52.347322 63.0242712,52.3385085 62.9951186,52.3181695 C62.9313898,52.2822373 62.9022373,52.2157966 62.9063051,52.1229153 C62.9157966,52.067322 62.9313898,52.0246102 62.9517288,51.9947797 Z M61.987661,50.8849492 C61.9252881,50.987322 61.8351186,51.0008814 61.7239322,50.9249492 C61.6012203,50.8456271 61.5720678,50.7595254 61.6378305,50.6639322 L62.8893559,48.6761356 C62.9557966,48.5703729 63.0439322,48.5568136 63.1632542,48.6374915 C63.2785085,48.7093559 63.3022373,48.7954576 63.2391864,48.8971525 L62.7171525,49.7263051 L63.3842712,50.1452881 L64.5496949,48.2903729 C64.6161356,48.188 64.708339,48.1744407 64.8303729,48.2530847 C64.9524068,48.3296949 64.9829153,48.4185085 64.9164746,48.5215593 L63.7496949,50.3764746 L65.1008814,51.2252881 L66.3652881,49.2178305 C66.4290169,49.1154576 66.5212203,49.1052881 66.6432542,49.1812203 C66.7693559,49.2612203 66.7991864,49.3493559 66.7361356,49.4517288 L64.0107119,53.7818983 C63.9449492,53.8835932 63.8534237,53.8964746 63.727322,53.8171525 C63.6046102,53.7418983 63.5754576,53.6490169 63.6385085,53.5500339 L64.8541017,51.6218983 L63.4995254,50.7737627 L62.3849492,52.5459661 C62.3212203,52.6490169 62.2242712,52.6578305 62.1029153,52.5825763 C61.9835932,52.5066441 61.9544407,52.4171525 62.0181695,52.3147797 L63.1327458,50.5418983 L62.4696949,50.1222373 L61.987661,50.8849492 Z M63.8066441,47.3751186 C63.8995254,47.3059661 63.9937627,47.3032542 64.0941017,47.3724068 C64.1313898,47.3954576 64.1578305,47.4218983 64.1734237,47.447661 C64.2385085,47.5371525 64.2425763,47.6293559 64.1869831,47.7181695 C64.1646102,47.7581695 64.1327458,47.7852881 64.0968136,47.8042712 C63.1727458,48.4347797 62.228339,48.8212203 61.2751186,48.9669831 C61.2290169,48.9696949 61.1985085,48.9832542 61.1822373,49.0090169 C61.168,49.0300339 61.168,49.0625763 61.1822373,49.1120678 C61.4791864,50.0198644 61.5449492,51.0239322 61.3795254,52.1195254 C61.3835932,52.1561356 61.3707119,52.1927458 61.347661,52.2320678 C61.287322,52.3249492 61.2052881,52.3581695 61.0988475,52.3317288 C61.0635932,52.3249492 61.0303729,52.3120678 61.0039322,52.2951186 C60.9151186,52.2388475 60.8778305,52.1527458 60.8913898,52.0408814 C61.068339,51.0727458 61.0039322,50.1066441 60.6941017,49.1317288 C60.6513898,48.9968136 60.6696949,48.867322 60.7557966,48.7391864 C60.8357966,48.6137627 60.9415593,48.5405424 61.0724068,48.5215593 C61.9835932,48.388678 62.8988475,48.0096949 63.8066441,47.3751186 Z" id="Fill-39" fill="#FEFEFE"></path>
                <path d="M21.7240678,16.9171525 C21.7823729,16.9727458 21.8169492,17.0812203 21.8271186,17.2425763 C21.8508475,17.5388475 21.7701695,17.7849492 21.5830508,17.9822373 C21.3850847,18.1924068 21.1477966,18.2839322 20.8738983,18.2561356 C20.6237288,18.2344407 20.3932203,18.1232542 20.1816949,17.9239322 C19.9362712,17.6920678 19.7918644,17.4418983 19.7511864,17.1754576 C19.7044068,16.8893559 19.7918644,16.6296949 20.0122034,16.3971525 C20.2183051,16.1788475 20.4467797,16.0852881 20.6989831,16.1178305 C20.8250847,16.1334237 20.9152542,16.168 20.9715254,16.2208814 C21.0372881,16.2818983 21.0372881,16.347661 20.9722034,16.4168136 C20.9416949,16.448678 20.9030508,16.4520678 20.8528814,16.4269831 C20.7362712,16.368 20.6155932,16.3537627 20.4942373,16.3835932 C20.3762712,16.4120678 20.2738983,16.4724068 20.1871186,16.5639322 C20.0223729,16.7374915 19.9640678,16.9381695 20.0122034,17.1632542 C20.0542373,17.3659661 20.1694915,17.5564746 20.3586441,17.7361356 C20.5240678,17.8920678 20.699661,17.9808814 20.8861017,18.0025763 C21.0894915,18.028339 21.2657627,17.9618983 21.4142373,17.8046102 C21.5057627,17.7090169 21.56,17.5910508 21.5783051,17.4534237 C21.5945763,17.3144407 21.5742373,17.1808814 21.52,17.0520678 C21.4962712,17.0032542 21.499661,16.9618983 21.5308475,16.9307119 C21.5959322,16.8615593 21.660339,16.8574915 21.7240678,16.9171525" id="Fill-41" fill="#FEFEFE"></path>
                <path d="M23.6175593,15.8512542 C23.6812881,15.9217627 23.6826441,15.9848136 23.6216271,16.0390508 C23.5606102,16.0939661 23.4989153,16.0871864 23.4358644,16.015322 L22.8412881,15.356339 L21.8616271,16.2376949 L22.4562034,16.8973559 C22.5199322,16.9671864 22.5219661,17.0295593 22.4629831,17.0824407 C22.4019661,17.136678 22.3395932,17.1292203 22.2758644,17.0587119 L20.9748475,15.6119322 C20.9124746,15.5427797 20.9117966,15.4817627 20.9721356,15.4261695 C21.0317966,15.3739661 21.0921356,15.3814237 21.1538305,15.4498983 L21.7016271,16.0580339 L22.6799322,15.1773559 L22.1334915,14.5685424 C22.0711186,14.5007458 22.0711186,14.4383729 22.1321356,14.3841356 C22.1911186,14.3292203 22.2534915,14.336678 22.3158644,14.4051525 L23.6175593,15.8512542 Z" id="Fill-43" fill="#FEFEFE"></path>
                <path d="M25.1204746,14.6528814 C25.1692881,14.7152542 25.1564068,14.7762712 25.0804746,14.8345763 L24.0865763,15.5986441 C24.0065763,15.6589831 23.9394576,15.6515254 23.8811525,15.5755932 L22.7252203,14.0718644 C22.6682712,13.9986441 22.672339,13.9376271 22.7353898,13.8894915 C22.8004746,13.84 22.8601356,13.8515254 22.9170847,13.9247458 L23.9814915,15.3111864 C24.0031864,15.3389831 24.0282712,15.3423729 24.0560678,15.32 L24.9353898,14.6447458 C25.011322,14.5864407 25.0730169,14.5898305 25.1204746,14.6528814" id="Fill-45" fill="#FEFEFE"></path>
                <path d="M26.2221695,12.8023729 C26.0858983,12.5935593 25.9265763,12.4518644 25.7442034,12.3786441 C25.5387797,12.2972881 25.3360678,12.320339 25.1387797,12.4491525 C24.9387797,12.579322 24.8350508,12.7535593 24.8275932,12.9718644 C24.8201356,13.1671186 24.8831864,13.3684746 25.0201356,13.5779661 C25.152339,13.780678 25.3082712,13.9176271 25.4886102,13.9867797 C25.6940339,14.0674576 25.8953898,14.0423729 26.0933559,13.9142373 C26.2886102,13.7867797 26.3930169,13.6125424 26.4058983,13.3935593 C26.4140339,13.2016949 26.3530169,13.0044068 26.2221695,12.8023729 M26.4438644,12.6572881 C26.6194576,12.9264407 26.6933559,13.1840678 26.6682712,13.4328814 C26.6418305,13.7128814 26.4947119,13.940678 26.2248814,14.1162712 C25.9509831,14.2945763 25.6831864,14.3379661 25.4194576,14.2457627 C25.1828475,14.1657627 24.9774237,13.9908475 24.8025085,13.7223729 C24.6235254,13.4471186 24.5428475,13.1840678 24.5631864,12.9352542 C24.5842034,12.6572881 24.7333559,12.4294915 25.0092881,12.2498305 C25.2804746,12.0722034 25.5496271,12.0301695 25.8153898,12.1230508 C26.0540339,12.2044068 26.2642034,12.3827119 26.4438644,12.6572881" id="Fill-47" fill="#FEFEFE"></path>
                <path d="M28.4891525,12.5964746 C28.5284746,12.6663051 28.5047458,12.7232542 28.4227119,12.7693559 L27.4247458,13.3164746 C27.3291525,13.368678 27.259322,13.3537627 27.2125424,13.2703729 L26.3244068,11.648 C26.2776271,11.5652881 26.3013559,11.4974915 26.3969492,11.4446102 L27.3955932,10.8974915 C27.4789831,10.8513898 27.54,10.8642712 27.579322,10.9361356 C27.6172881,11.0052881 27.5955932,11.0629153 27.5122034,11.1096949 L26.6294915,11.5937627 C26.5983051,11.6100339 26.5915254,11.6337627 26.6091525,11.6656271 L26.9061017,12.208 L27.7155932,11.7632542 C27.7989831,11.7185085 27.86,11.7313898 27.9,11.8025763 C27.9386441,11.8724068 27.9149153,11.9300339 27.8322034,11.9754576 L27.0220339,12.4195254 L27.3528814,13.0229153 C27.3711864,13.0547797 27.3942373,13.0615593 27.4254237,13.0439322 L28.3074576,12.5598644 C28.3908475,12.5144407 28.4518644,12.5259661 28.4891525,12.5964746" id="Fill-49" fill="#FEFEFE"></path>
                <path d="M31.7332881,11.2014915 C31.7624407,11.2753898 31.7319322,11.3296271 31.6444746,11.3642034 L30.4743051,11.8164068 C30.3814237,11.852339 30.3176949,11.8258983 30.2831186,11.7370847 L29.5990508,9.96827119 C29.5658305,9.88216949 29.5854915,9.82454237 29.6593898,9.7960678 C29.736678,9.76623729 29.7909153,9.79471186 29.8254915,9.88149153 L30.455322,11.511322 C30.4675254,11.5445424 30.4905763,11.5547119 30.5231186,11.5411525 L31.5576949,11.1418305 C31.6458305,11.1072542 31.7054915,11.1275932 31.7332881,11.2014915" id="Fill-51" fill="#FEFEFE"></path>
                <path d="M33.3064407,9.73762712 C33.2345763,9.49762712 33.1213559,9.3179661 32.9674576,9.1959322 C32.7925424,9.05966102 32.5925424,9.02508475 32.3661017,9.09355932 C32.1383051,9.1620339 31.9905085,9.30033898 31.920678,9.50711864 C31.8576271,9.69288136 31.8630508,9.90440678 31.9349153,10.1430508 C32.0061017,10.3755932 32.1159322,10.5505085 32.2698305,10.6677966 C32.4440678,10.8020339 32.6440678,10.8352542 32.8698305,10.7674576 C33.0949153,10.700339 33.2427119,10.5633898 33.3172881,10.3559322 C33.3789831,10.1742373 33.3755932,9.96745763 33.3064407,9.73762712 M33.559322,9.66101695 C33.6522034,9.96745763 33.6522034,10.2352542 33.5566102,10.4671186 C33.4535593,10.7288136 33.2481356,10.9064407 32.939661,10.9979661 C32.6264407,11.0922034 32.3572881,11.0589831 32.1308475,10.8962712 C31.9267797,10.7532203 31.7783051,10.5274576 31.6854237,10.2210169 C31.5905085,9.90644068 31.5877966,9.63186441 31.6766102,9.3979661 C31.7755932,9.13762712 31.9823729,8.96067797 32.2976271,8.86508475 C32.6088136,8.77220339 32.8786441,8.80677966 33.1077966,8.97084746 C33.3145763,9.11661017 33.4650847,9.34576271 33.559322,9.66101695" id="Fill-53" fill="#FEFEFE"></path>
                <path d="M35.4991864,8.20162712 C35.5005424,8.20840678 35.4991864,8.2280678 35.4951186,8.2599322 L35.068,10.3690847 C35.0571525,10.4287458 35.0307119,10.4626441 34.9920678,10.4714576 C34.947322,10.4802712 34.9046102,10.4592542 34.8659661,10.4063729 L33.5859661,8.67010169 C33.5791864,8.66128814 33.5730847,8.64230508 33.5669831,8.61654237 C33.5513898,8.54332203 33.5846102,8.49789831 33.6666441,8.47959322 C33.7012203,8.47281356 33.7351186,8.49315254 33.7710508,8.53925424 L34.9012203,10.0504407 L35.2591864,8.21857627 C35.268678,8.16298305 35.2964746,8.13044068 35.3398644,8.12094915 C35.4300339,8.10128814 35.4835932,8.12840678 35.4991864,8.20162712" id="Fill-55" fill="#FEFEFE"></path>
                <path d="M37.5648814,9.87138983 C37.5757288,9.94935593 37.5343729,9.99613559 37.4401356,10.0090169 L36.312678,10.1669831 C36.2062373,10.1818983 36.1452203,10.1425763 36.132339,10.0490169 L35.8753898,8.21647458 C35.8618305,8.12223729 35.9099661,8.068 36.0157288,8.05172881 L37.1438644,7.89444068 C37.2381017,7.88088136 37.2909831,7.91477966 37.3018305,7.99613559 C37.312678,8.07477966 37.271322,8.12020339 37.1770847,8.13376271 L36.1811525,8.27342373 C36.1465763,8.27816949 36.1309831,8.29850847 36.1364068,8.33308475 L36.2211525,8.9459661 L37.1357288,8.81783051 C37.2299661,8.80494915 37.2828475,8.83884746 37.2950508,8.91952542 C37.3052203,8.99816949 37.2645424,9.04359322 37.1703051,9.05715254 L36.2550508,9.18528814 L36.3506441,9.86732203 C36.3560678,9.90189831 36.3757288,9.91749153 36.411661,9.91274576 L37.4075932,9.77240678 C37.5011525,9.75884746 37.5540339,9.7920678 37.5648814,9.87138983" id="Fill-57" fill="#FEFEFE"></path>
                <path d="M40.9699661,7.82684746 C40.9706441,7.90616949 40.9231864,7.94616949 40.8275932,7.94752542 L39.8221695,7.95566102 C39.7869153,7.95633898 39.7692881,7.9739661 39.7692881,8.00989831 L39.7747119,8.62820339 L40.6994576,8.6200678 C40.7930169,8.6200678 40.8418305,8.6600678 40.8425085,8.74210169 C40.8431864,8.82142373 40.7957288,8.86074576 40.7008136,8.86210169 L39.7767458,8.87023729 L39.7842034,9.75362712 C39.7855593,9.84854237 39.7448814,9.89667797 39.6635254,9.89735593 C39.5842034,9.8980339 39.5435254,9.85057627 39.5435254,9.75633898 L39.5258983,7.85871186 C39.5258983,7.76447458 39.5787797,7.71633898 39.6872542,7.71566102 L40.8262373,7.70481356 C40.9218305,7.70481356 40.9692881,7.74549153 40.9699661,7.82684746" id="Fill-59" fill="#FEFEFE"></path>
                <path d="M42.983322,8.89681356 C42.9989153,8.64867797 42.9568814,8.43986441 42.8565424,8.27172881 C42.7399322,8.08257627 42.564339,7.98020339 42.3290847,7.96461017 C42.0911186,7.94833898 41.9026441,8.02494915 41.7656949,8.19511864 C41.6429831,8.34630508 41.5731525,8.54562712 41.5562034,8.79511864 C41.5399322,9.03715254 41.5826441,9.23986441 41.684339,9.4039322 C41.7995932,9.59037288 41.9758644,9.69274576 42.2111186,9.70766102 C42.4456949,9.72461017 42.6321356,9.64732203 42.7738305,9.48054237 C42.8972203,9.3320678 42.9663729,9.13749153 42.983322,8.89681356 M43.2470508,8.91511864 C43.224678,9.23444068 43.1290847,9.48528814 42.9609492,9.66901695 C42.7724746,9.87783051 42.5162034,9.97071186 42.1955254,9.94969492 C41.8694237,9.92732203 41.6287458,9.80054237 41.4734915,9.56867797 C41.3331525,9.36257627 41.2741695,9.09952542 41.2951864,8.78020339 C41.3175593,8.4520678 41.4104407,8.19444068 41.5758644,8.00664407 C41.7602712,7.79783051 42.0165424,7.70359322 42.3453559,7.7259661 C42.6680678,7.74766102 42.9080678,7.87579661 43.0653559,8.11037288 C43.2084068,8.31783051 43.2694237,8.58698305 43.2470508,8.91511864" id="Fill-61" fill="#FEFEFE"></path>
                <path d="M45.3734237,9.50454237 C45.3347797,9.75538983 45.2235932,9.94183051 45.0398644,10.0631864 C44.8554576,10.1865763 44.628339,10.2272542 44.3578305,10.1865763 C44.0703729,10.1425085 43.8602034,10.0367458 43.7259661,9.8699661 C43.5951186,9.70454237 43.5503729,9.49166102 43.5896949,9.232 L43.7788475,7.98861017 C43.7937627,7.89708475 43.8385085,7.85640678 43.9185085,7.86928814 C43.9991864,7.88149153 44.0317288,7.93369492 44.0174915,8.02522034 L43.8310508,9.25301695 C43.7700339,9.64962712 43.9578305,9.88081356 44.3951186,9.94725424 C44.5734237,9.97437288 44.7266441,9.95335593 44.8527458,9.88420339 C45.008,9.80013559 45.1022373,9.65572881 45.1334237,9.45098305 L45.3205424,8.22386441 C45.3347797,8.13301695 45.3822373,8.09233898 45.4622373,8.10522034 C45.5442712,8.11742373 45.5768136,8.16894915 45.5625763,8.26047458 L45.3734237,9.50454237 Z" id="Fill-63" fill="#FEFEFE"></path>
                <path d="M47.3305085,10.6578983 C47.3081356,10.7507797 47.2654237,10.7887458 47.2010169,10.7738305 C47.1732203,10.7670508 47.1454237,10.7331525 47.1162712,10.6721356 L46.2389831,8.74467797 L45.8661017,10.3087458 C45.8437288,10.4016271 45.7928814,10.4382373 45.7162712,10.4192542 C45.639661,10.4016271 45.6118644,10.3467119 45.6335593,10.2538305 L46.0844068,8.36027119 C46.1061017,8.27077966 46.1535593,8.23349153 46.2233898,8.25044068 C46.2464407,8.25586441 46.2722034,8.28772881 46.3,8.34332203 L47.1745763,10.2714576 L47.5461017,8.70874576 C47.5684746,8.61857627 47.619322,8.58264407 47.6986441,8.60230508 C47.7752542,8.62061017 47.8030508,8.67484746 47.7820339,8.76501695 L47.3305085,10.6578983 Z" id="Fill-65" fill="#FEFEFE"></path>
                <path d="M49.4477966,10.3096271 C49.6186441,9.78555932 49.4715254,9.44725424 49.0057627,9.29538983 L48.5237288,9.13742373 C48.4905085,9.12725424 48.4681356,9.13810169 48.4572881,9.172 L47.9766102,10.6445424 C47.9657627,10.6784407 47.9772881,10.7001356 48.0111864,10.712339 L48.4925424,10.8682712 C48.5976271,10.9028475 48.7115254,10.9075932 48.8322034,10.8825085 C49.1366102,10.8255593 49.3420339,10.6350508 49.4477966,10.3096271 M49.6932203,10.3896271 C49.6267797,10.5930169 49.5216949,10.7618305 49.3779661,10.8960678 C49.2254237,11.0364068 49.0457627,11.1184407 48.8389831,11.1414915 C48.6972881,11.1557288 48.5569492,11.1401356 48.4186441,11.0947119 L47.8111864,10.8974237 C47.7081356,10.8642034 47.6722034,10.8025085 47.7013559,10.711661 L48.2749153,8.95233898 C48.3040678,8.86216949 48.3698305,8.83301695 48.4735593,8.86691525 L49.0810169,9.06488136 C49.7101695,9.27030508 49.9135593,9.71166102 49.6932203,10.3896271" id="Fill-67" fill="#FEFEFE"></path>
                <path d="M51.1930847,11.2405424 L51.1544407,10.2113898 L50.3971525,10.9069831 L51.1930847,11.2405424 Z M51.4527458,12.2066441 C51.4418983,12.2310508 51.4235932,12.248 51.3985085,12.2588475 C51.3707119,12.2737627 51.3429153,12.2751186 51.3164746,12.2642712 C51.2595254,12.2405424 51.2317288,12.1985085 51.2303729,12.1381695 L51.2032542,11.5096949 L50.1957966,11.0866441 L49.7293559,11.5130847 C49.6859661,11.5524068 49.6371525,11.5612203 49.5788475,11.5368136 C49.5137627,11.5090169 49.4954576,11.4629153 49.5232542,11.3978305 C49.5415593,11.3557966 49.5646102,11.3212203 49.5944407,11.2947797 L51.1774915,9.88325424 C51.2235932,9.84122034 51.2669831,9.82766102 51.307661,9.84461017 C51.348339,9.86223729 51.3707119,9.90291525 51.3761356,9.96664407 L51.4751186,12.0832542 C51.4778305,12.1225763 51.4710508,12.1632542 51.4527458,12.2066441 Z" id="Fill-69" fill="#FEFEFE"></path>
                <path d="M54.0505763,11.3484746 C54.0132881,11.4189831 53.9529492,11.4325424 53.8688814,11.3898305 L53.2980339,11.0962712 L52.4736271,12.6969492 C52.4309153,12.7816949 52.3726102,12.8047458 52.3000678,12.7674576 C52.2282034,12.7301695 52.2126102,12.6691525 52.256678,12.5844068 L53.0797288,10.9837288 L52.5061695,10.6881356 C52.4221017,10.6447458 52.3976949,10.5877966 52.4336271,10.5172881 C52.4722712,10.4447458 52.5332881,10.4305085 52.616678,10.4732203 L53.9800678,11.1742373 C54.0641356,11.2183051 54.0878644,11.2766102 54.0505763,11.3484746" id="Fill-71" fill="#FEFEFE"></path>
                <path d="M53.7870508,13.4082034 C53.7341695,13.4983729 53.6717966,13.5214237 53.6019661,13.4800678 C53.5341695,13.4400678 53.5260339,13.3749831 53.5789153,13.2861695 L54.5524746,11.635322 C54.6053559,11.5451525 54.6663729,11.5214237 54.7334915,11.5607458 C54.8053559,11.6034576 54.8134915,11.6685424 54.7612881,11.7573559 L53.7870508,13.4082034 Z" id="Fill-73" fill="#FEFEFE"></path>
                <path d="M56.1837966,13.8298983 C56.3241356,13.6231186 56.3919322,13.4210847 56.3878644,13.2244746 C56.3837966,13.0027797 56.2827797,12.8265085 56.0868475,12.6943051 C55.8895593,12.5614237 55.6888814,12.5336271 55.4834576,12.6115932 C55.3017627,12.6814237 55.1417627,12.8190508 55.0027797,13.0251525 C54.8665085,13.2265085 54.8014237,13.4231186 54.8075254,13.616339 C54.8136271,13.836 54.9139661,14.0122712 55.1098983,14.1437966 C55.3044746,14.2746441 55.5044746,14.3031186 55.7112542,14.2292203 C55.8922712,14.1621017 56.0502373,14.0292203 56.1837966,13.8298983 M56.4034576,13.9776949 C56.2251525,14.2434576 56.0170169,14.4122712 55.7770169,14.4861695 C55.5112542,14.5722712 55.2421017,14.5241356 54.976339,14.3444746 C54.7044746,14.1614237 54.5600678,13.9315932 54.5424407,13.6536271 C54.5248136,13.4041356 54.6041356,13.1471864 54.7831186,12.8827797 C54.9668475,12.6088814 55.1776949,12.4326102 55.4143051,12.3526102 C55.6793898,12.2651525 55.9478644,12.3132881 56.2204068,12.4970169 C56.4895593,12.6787119 56.6326102,12.9092203 56.6509153,13.1905763 C56.6712542,13.4427797 56.5878644,13.7051525 56.4034576,13.9776949" id="Fill-75" fill="#FEFEFE"></path>
                <path d="M57.4655593,16.0432542 C57.4065763,16.1171525 57.3509831,16.1341017 57.3001356,16.0920678 C57.2777627,16.0744407 57.2655593,16.0310508 57.2655593,15.9639322 L57.2953898,13.8466441 L56.2906441,15.1015593 C56.2303051,15.1768136 56.1706441,15.188339 56.1082712,15.1388475 C56.0458983,15.0893559 56.0445424,15.027661 56.1035254,14.9530847 L57.3204746,13.4330847 C57.3781017,13.3612203 57.4364068,13.3469831 57.492,13.3930847 C57.511661,13.408 57.5211525,13.448 57.5211525,13.5096949 L57.4906441,15.6263051 L58.4933559,14.3720678 C58.551661,14.3002034 58.612,14.2893559 58.6757288,14.3402034 C58.7381017,14.3903729 58.7408136,14.4507119 58.6825085,14.5232542 L57.4655593,16.0432542 Z" id="Fill-77" fill="#FEFEFE"></path>
            </g>
        </g>
    </g>
</svg>