<?xml version="1.0" encoding="UTF-8"?>
<svg width="123px" height="132px" viewBox="0 0 123 132" version="1.1" xmlns="http://www.w3.org/2000/svg" xmlns:xlink="http://www.w3.org/1999/xlink">
    <!-- Generator: Sketch 51.3 (57544) - http://www.bohemiancoding.com/sketch -->
    <title>Group 35</title>
    <desc>Created with Sketch.</desc>
    <defs>
        <polygon id="path-1" points="0 0 122.938 0 122.938 131.214 0 131.214"></polygon>
    </defs>
    <g id="Page-1" stroke="none" stroke-width="1" fill="none" fill-rule="evenodd">
        <g id="Artboard" transform="translate(-38.000000, -183.000000)">
            <g id="Group-35" transform="translate(38.000000, 183.000000)">
                <mask id="mask-2" fill="white">
                    <use xlink:href="#path-1"></use>
                </mask>
                <g id="Clip-2"></g>
                <path d="M72.883,121.871 L78.689,121.871 L78.689,120.912 L72.883,120.912 L72.883,121.871 Z M72.883,119.143 L78.689,119.143 L78.689,118.183 L72.883,118.183 L72.883,119.143 Z M72.883,116.417 L78.689,116.417 L78.689,115.456 L72.883,115.456 L72.883,116.417 Z M70.472,116.321 L70.472,124.206 L72.883,124.206 L72.883,123.639 L87.969,123.639 L87.969,121.871 L81.099,121.871 L81.099,120.912 L87.969,120.912 L87.969,119.143 L81.099,119.143 L81.124,118.183 L87.969,118.183 L87.969,116.417 L81.124,116.417 L81.124,115.456 L87.969,115.456 L87.969,113.688 L81.124,113.688 L81.124,111.993 L78.688,111.993 L78.688,113.688 L73.794,113.688 C73.794,113.688 74.442,112.874 74.937,111.971 L72.146,111.971 C70.892,113.8 68.931,114.461 68.931,114.461 L68.931,116.995 L68.937,116.995 L68.931,116.999 L70.472,116.321 Z" id="Fill-1" fill="#185B9A" mask="url(#mask-2)"></path>
                <path d="M87.9688,126.8073 L87.9688,124.7863 L79.9178,124.7863 L79.9178,124.2743 L77.5068,124.2743 L77.5068,124.7863 L69.2038,124.7863 L69.2038,126.8073 L74.0398,126.8073 C72.4738,127.7253 70.7548,128.4103 68.9328,128.8193 L68.9328,130.7373 C72.0688,130.1033 74.9328,128.7273 77.3428,126.8073 L77.5068,126.8073 L77.5068,131.1983 L79.9178,131.1983 L79.9178,126.8073 L80.1548,126.8073 C82.5658,128.7273 85.3058,130.1033 88.4418,130.7373 L88.4418,128.8193 C86.6168,128.4103 84.9018,127.7253 83.3328,126.8073 L87.9688,126.8073 Z" id="Fill-3" fill="#185B9A" mask="url(#mask-2)"></path>
                <path d="M106.014,128.876 L120.417,128.876 L120.417,114.407 L106.014,114.407 L106.014,128.876 Z M103.497,131.2 L122.933,131.2 L122.933,112.084 L103.497,112.084 L103.497,131.2 Z" id="Fill-4" fill="#185B9A" mask="url(#mask-2)"></path>
                <path d="M114.9092,121.9577 L114.9092,125.7727 L112.9522,125.7727 L112.9522,128.2197 L117.3462,128.2197 L117.3462,119.8167 L119.4962,119.8167 L119.4962,117.4927 L117.3462,117.4927 L117.3462,115.1767 L114.9092,115.1767 L114.9092,117.4927 L106.9422,117.4927 L106.9422,119.8167 L113.4612,119.8167 C112.4332,122.0827 110.0832,123.6727 106.9332,124.1627 L106.9332,126.4397 C110.3612,126.0327 113.3722,124.2447 114.9092,121.9577" id="Fill-5" fill="#185B9A" mask="url(#mask-2)"></path>
                <path d="M6.8174,119.698 L4.3484,119.698 L4.0934,120.495 L0.0004,120.495 L0.0004,122.964 L2.9914,122.964 L0.0004,131.208 L2.4694,131.208 L4.3584,126.207 L16.0804,126.207 C14.7744,127.085 13.3484,127.79 11.8374,128.303 C10.6884,127.913 9.5874,127.41 8.5534,126.81 L5.1514,126.81 C6.2474,127.68 7.4344,128.438 8.6964,129.071 C7.7564,129.214 6.7944,129.288 5.8094,129.288 C5.1654,129.288 4.4124,129.255 3.7884,129.189 L3.1434,131.176 C3.7724,131.235 5.1674,131.208 5.8094,131.208 C7.9034,131.208 9.9214,130.899 11.8194,130.32 C13.7054,130.897 15.7024,131.208 17.7734,131.208 C18.2564,131.208 18.7354,131.186 19.2124,131.154 L19.2124,129.23 C18.7354,129.267 18.2564,129.288 17.7734,129.288 C16.8114,129.288 15.8724,129.211 14.9504,129.071 C16.4944,128.299 17.9244,127.335 19.2124,126.207 L19.2124,125.887 L19.2124,124.167 L5.1764,124.167 L5.5854,122.964 L19.2124,122.964 L19.2124,120.495 L6.5634,120.495 L6.8174,119.698 Z" id="Fill-6" fill="#185B9A" mask="url(#mask-2)"></path>
                <path d="M4.567,116.635 L8.189,116.635 L8.189,114.923 L4.567,114.923 L4.567,116.635 Z M10.763,116.635 L14.398,116.635 L14.398,114.923 L10.763,114.923 L10.763,116.635 Z M2.413,119.106 L16.741,119.106 L16.741,119.833 L19.212,119.833 L19.212,116.634 L16.993,116.634 L16.993,114.923 L19.212,114.923 L19.212,112.454 L0,112.454 L0,114.923 L1.996,114.923 L1.996,116.634 L0,116.634 L0,119.833 L2.413,119.833 L2.413,119.106 Z" id="Fill-7" fill="#185B9A" mask="url(#mask-2)"></path>
                <path d="M12.7901,100.6609 L5.8491,100.6609 L9.3921,91.2249 L12.7901,100.6609 Z M15.2141,107.3029 L19.0111,107.3029 L11.6861,88.0109 L7.4031,88.0109 L0.0021,107.3029 L3.3991,107.3029 L5.1961,102.7079 L13.4761,102.7079 L15.2141,107.3029 Z" id="Fill-8" fill="#185B9A" mask="url(#mask-2)"></path>
                <path d="M50.1904,87.5261 C44.3434,87.5321 39.5854,92.1141 39.5854,97.7431 C39.5854,103.3681 44.3434,107.9441 50.1914,107.9441 C52.6104,107.9441 54.9604,107.1411 56.8484,105.6781 L54.9574,103.0791 C53.6554,104.2111 51.9834,104.8311 50.1934,104.8381 C46.2644,104.8291 42.8234,101.5131 42.8234,97.7431 C42.8234,93.9601 46.2654,90.6431 50.1914,90.6431 C51.9714,90.6431 53.6414,91.2621 54.9544,92.3981 L56.8484,89.7961 C54.9604,88.3351 52.6104,87.5321 50.1904,87.5261" id="Fill-9" fill="#6AB12E" mask="url(#mask-2)"></path>
                <polygon id="Fill-10" fill="#6AB12E" mask="url(#mask-2)" points="101.335 107.3025 104.66 107.3025 104.66 88.0105 101.347 88.0105 93.852 97.2085 85.96 88.0105 83.063 88.0105 83.063 107.3025 86.385 107.3025 86.385 93.7425 93.869 102.1105 101.335 93.2725"></polygon>
                <polygon id="Fill-11" fill="#6AB12E" mask="url(#mask-2)" points="107.9844 107.3025 122.9384 107.3025 122.9384 104.7865 111.3034 104.7865 111.3034 98.9875 121.9694 98.9875 121.9694 96.5065 111.3034 96.5065 111.3034 90.7135 122.4504 90.7135 122.4504 88.0105 107.9844 88.0105"></polygon>
                <path d="M69.1397,104.7976 C65.0927,104.7876 61.8017,101.6226 61.8017,97.7416 C61.8017,93.8506 65.0927,90.6846 69.1387,90.6846 C73.1787,90.6846 76.4657,93.8506 76.4657,97.7416 C76.4657,101.6226 73.1787,104.7876 69.1397,104.7976 M69.1357,87.5266 C63.2807,87.5316 58.5147,92.1156 58.5147,97.7416 C58.5147,103.3666 63.2807,107.9436 69.1377,107.9436 C74.9847,107.9436 79.7397,103.3666 79.7397,97.7416 C79.7397,92.1156 74.9837,87.5316 69.1357,87.5266" id="Fill-12" fill="#6AB12E" mask="url(#mask-2)"></path>
                <polygon id="Fill-13" fill="#185B9A" mask="url(#mask-2)" points="35.9512 107.3025 39.5872 107.3025 31.6172 96.3185 38.5022 88.0105 34.6022 88.0105 25.4972 98.8955 25.4972 88.0105 22.4212 88.0105 22.4212 107.3025 25.4972 107.3025 25.4972 103.5385 29.6352 98.5965"></polygon>
                <path d="M101.1436,51.7741 C101.1236,51.8441 101.1006,51.9131 101.0756,51.9801 C100.7566,52.7941 99.9896,53.3191 99.1166,53.3191 C98.9046,53.3191 98.6956,53.2881 98.4966,53.2271 C97.9296,53.0131 66.5556,40.7211 66.1466,40.5591 C65.5616,40.3031 65.1666,39.7261 65.1396,39.0901 C65.1376,39.0691 65.1376,39.0471 65.1376,39.0241 L65.1376,39.0161 C65.1376,38.9931 65.1376,38.9671 65.1396,38.9431 C65.1646,38.3271 65.5256,37.7761 66.0806,37.5031 C66.6146,37.2881 98.0736,24.9641 98.5896,24.7701 C98.7806,24.7121 98.9786,24.6811 99.1786,24.6811 C99.9716,24.6811 100.6886,25.1491 101.0066,25.8761 C101.0576,25.9891 101.0966,26.1061 101.1236,26.2261 C101.1596,26.3751 101.1746,26.5261 101.1746,26.6771 C101.1746,27.4481 100.7276,28.1551 100.0326,28.4851 C99.5816,28.6671 74.0226,38.6691 73.7646,38.7691 L73.1316,39.0181 L73.7666,39.2601 C74.0246,39.3581 99.5266,49.1221 100.0476,49.3331 C100.7686,49.6901 101.2176,50.4121 101.2176,51.2171 C101.2176,51.4061 101.1926,51.5921 101.1436,51.7741" id="Fill-14" fill="#6AB12E" mask="url(#mask-2)"></path>
                <path d="M75.1602,77.8972 C75.0732,77.9302 74.9872,77.9592 74.9012,77.9812 C74.7272,78.0262 74.5482,78.0492 74.3662,78.0492 C73.4482,78.0492 72.6382,77.4632 72.3482,76.5922 L70.1262,70.7862 L62.2062,50.0202 L61.9582,50.6592 C61.8602,50.9172 52.0292,76.3332 51.8212,76.8392 C51.4642,77.5632 50.7422,78.0132 49.9352,78.0132 C49.7552,78.0132 49.5762,77.9892 49.4012,77.9442 C49.3202,77.9222 49.2372,77.8952 49.1552,77.8622 C48.3522,77.5412 47.8342,76.7762 47.8342,75.9112 C47.8342,75.7082 47.8642,75.5062 47.9212,75.3112 C48.1412,74.7202 60.4992,43.3622 60.6702,42.9322 C60.9312,42.3582 61.4812,41.9792 62.1102,41.9462 C62.1752,41.9402 62.2392,41.9422 62.3032,41.9462 C62.9222,41.9792 63.4692,42.3522 63.7312,42.9132 C63.9482,43.4522 76.2162,74.8112 76.3932,75.2842 C76.4602,75.4922 76.4922,75.7072 76.4922,75.9242 C76.4922,76.7952 75.9692,77.5692 75.1602,77.8972" id="Fill-15" fill="#6AB12E" mask="url(#mask-2)"></path>
                <path d="M45.7168,53.948 C45.7168,53.054 46.4138,52.329 47.3038,52.296 C47.3248,52.294 47.3478,52.293 47.3698,52.293 C47.7958,52.293 48.1998,52.456 48.5098,52.75 C48.8408,53.065 49.0228,53.491 49.0228,53.942 L49.0228,53.959 C49.0188,54.885 48.2408,55.635 47.3038,55.598 C46.9328,55.583 46.5868,55.448 46.3028,55.208 C46.2588,55.171 46.2158,55.131 46.1748,55.089 C46.1538,55.066 46.1348,55.043 46.1138,55.021 C45.8598,54.725 45.7188,54.345 45.7168,53.951 L45.7168,53.948 Z" id="Fill-16" fill="#185B9A" mask="url(#mask-2)"></path>
                <path d="M77.1338,10.571 C77.3308,10.461 77.5538,10.403 77.7798,10.403 C77.9638,10.403 78.1438,10.441 78.3118,10.516 C78.3908,10.551 78.4658,10.594 78.5378,10.643 C78.8838,10.89 79.0928,11.29 79.0928,11.716 C79.0928,11.86 79.0678,12.003 79.0228,12.141 C78.8678,12.512 71.9328,28.841 71.8628,29.007 L71.6068,29.606 L72.2068,29.35 C77.9168,26.913 88.7448,22.294 89.0978,22.151 C89.2238,22.111 89.3548,22.092 89.4888,22.092 C89.9018,22.092 90.2958,22.29 90.5438,22.621 C90.6088,22.706 90.6618,22.8 90.7028,22.897 C90.7708,23.059 90.8058,23.231 90.8058,23.409 C90.8058,23.645 90.7408,23.877 90.6218,24.08 C90.4988,24.286 90.3228,24.455 90.1128,24.568 C89.7038,24.75 73.4958,31.653 73.3318,31.723 L69.6318,33.299 L69.6248,33.301 C69.4538,33.38 69.2738,33.419 69.0858,33.419 C68.7418,33.419 68.4198,33.286 68.1768,33.044 C67.9328,32.8 67.7978,32.476 67.7978,32.132 C67.7978,31.971 67.8268,31.813 67.8848,31.667 L67.8868,31.662 L76.5928,11.155 C76.7098,10.909 76.8968,10.708 77.1338,10.571" id="Fill-17" fill="#6AB12E" mask="url(#mask-2)"></path>
                <path d="M47.2881,67.3845 C47.0771,67.5225 46.8311,67.5945 46.5771,67.5945 C46.3881,67.5945 46.2041,67.5545 46.0321,67.4745 C45.9621,67.4435 45.8951,67.4055 45.8311,67.3605 C45.4811,67.1155 45.2731,66.7165 45.2731,66.2915 C45.2731,66.1545 45.2951,66.0185 45.3371,65.8875 C45.5071,65.4755 52.4851,49.1945 52.5561,49.0305 L52.8131,48.4285 L52.2121,48.6855 C52.0471,48.7545 35.7371,55.6895 35.3331,55.8545 C35.2021,55.8975 35.0631,55.9185 34.9251,55.9185 C34.4931,55.9185 34.0891,55.7055 33.8431,55.3515 C33.7981,55.2875 33.7601,55.2205 33.7271,55.1525 C33.6471,54.9775 33.6071,54.7935 33.6071,54.6025 C33.6071,54.3755 33.6671,54.1535 33.7761,53.9575 C33.9021,53.7335 34.0891,53.5535 34.3141,53.4345 C34.7551,53.2415 54.4581,44.8715 54.9211,44.6805 C55.0541,44.6365 55.1921,44.6135 55.3331,44.6135 C55.6791,44.6135 56.0021,44.7485 56.2451,44.9925 C56.4851,45.2355 56.6171,45.5565 56.6171,45.8975 C56.6171,46.0295 56.5971,46.1595 56.5581,46.2855 C56.3661,46.7525 47.9341,66.4395 47.7241,66.9125 C47.6211,67.1025 47.4701,67.2645 47.2881,67.3845" id="Fill-18" fill="#185B9A" mask="url(#mask-2)"></path>
                <path d="M58.2842,40.5554 L58.2762,40.5594 L25.9912,53.1974 C25.7672,53.2754 25.5342,53.3154 25.2982,53.3154 C24.4362,53.3154 23.6732,52.7994 23.3482,52.0034 C23.3112,51.9144 23.2812,51.8254 23.2592,51.7344 C23.2152,51.5644 23.1932,51.3874 23.1932,51.2114 C23.1932,50.3714 23.6912,49.6144 24.4622,49.2804 C24.8162,49.1414 50.2182,39.3634 50.4752,39.2624 L51.1112,39.0184 L24.5092,28.7674 C23.7162,28.4424 23.2032,27.6784 23.2032,26.8214 C23.2032,26.6374 23.2272,26.4514 23.2752,26.2744 C23.2962,26.1994 23.3202,26.1244 23.3492,26.0514 C23.6692,25.2424 24.4362,24.7204 25.3052,24.7204 C25.5282,24.7204 25.7472,24.7544 25.9582,24.8244 C26.4252,25.0004 57.7882,37.2854 58.1042,37.4104 L58.1202,37.4164 C58.1822,37.4364 58.2472,37.4614 58.3072,37.4904 C58.8992,37.7654 59.2822,38.3644 59.2822,39.0184 C59.2822,39.6834 58.8892,40.2874 58.2842,40.5554" id="Fill-19" fill="#185B9A" mask="url(#mask-2)"></path>
                <path d="M82.5723,41.3796 C83.8683,41.3796 84.9233,40.3226 84.9233,39.0276 C84.9233,37.7316 83.8683,36.6766 82.5723,36.6766 C82.2053,36.6766 81.8533,36.7606 81.5253,36.9226 C80.8543,37.2576 80.3793,37.8976 80.2553,38.6346 C80.2323,38.7666 80.2213,38.8986 80.2213,39.0276 C80.2213,39.1566 80.2323,39.2876 80.2553,39.4206 C80.3793,40.1576 80.8523,40.7966 81.5253,41.1336 C81.8533,41.2956 82.2063,41.3796 82.5723,41.3796" id="Fill-20" fill="#6AB12E" mask="url(#mask-2)"></path>
                <path d="M41.8731,41.3767 C40.5771,41.3767 39.5241,40.3227 39.5241,39.0277 C39.5241,37.7317 40.5791,36.6787 41.8731,36.6787 C42.2391,36.6787 42.5911,36.7627 42.9191,36.9247 C43.5651,37.2467 44.0351,37.8597 44.1761,38.5647 C44.2061,38.7177 44.2221,38.8717 44.2221,39.0257 C44.2221,39.1817 44.2061,39.3367 44.1761,39.4867 C44.0361,40.1937 43.5661,40.8067 42.9191,41.1307 C42.5911,41.2927 42.2391,41.3767 41.8731,41.3767" id="Fill-21" fill="#185B9A" mask="url(#mask-2)"></path>
                <path d="M90.6602,55.2126 L90.6512,55.2316 C90.4182,55.6546 89.9752,55.9166 89.4942,55.9166 C89.3412,55.9166 89.1902,55.8896 89.0462,55.8386 C88.7232,55.7026 72.3752,48.7526 72.2092,48.6816 L71.6102,48.4266 L71.8642,49.0256 C74.2922,54.7406 78.8912,65.5746 79.0332,65.9246 C79.0722,66.0506 79.0932,66.1826 79.0932,66.3166 C79.0932,66.7516 78.8772,67.1576 78.5162,67.4046 C78.4582,67.4436 78.3952,67.4796 78.3312,67.5106 C78.1562,67.5916 77.9702,67.6326 77.7752,67.6326 C77.5522,67.6326 77.3302,67.5746 77.1342,67.4676 C76.9112,67.3426 76.7292,67.1556 76.6102,66.9306 C76.3942,66.4416 68.0282,46.7236 67.8412,46.2626 C67.8062,46.1426 67.7882,46.0196 67.7882,45.8936 C67.7882,45.5476 67.9232,45.2246 68.1672,44.9816 C68.4112,44.7386 68.7332,44.6056 69.0772,44.6056 C69.2232,44.6056 69.3702,44.6316 69.5082,44.6786 C69.8472,44.8206 89.6392,53.2276 90.1182,53.4396 C90.3392,53.5586 90.5212,53.7366 90.6442,53.9576 C90.7532,54.1526 90.8112,54.3736 90.8112,54.5996 C90.8112,54.8136 90.7592,55.0256 90.6602,55.2126" id="Fill-22" fill="#6AB12E" mask="url(#mask-2)"></path>
                <path d="M62.2168,61.7292 L62.2118,61.7292 C60.9158,61.7262 59.8628,60.6692 59.8628,59.3752 C59.8628,59.0062 59.9458,58.6542 60.1088,58.3272 C60.4438,57.6552 61.0848,57.1782 61.8228,57.0542 C61.9518,57.0322 62.0818,57.0202 62.2128,57.0202 L62.2168,57.0202 C62.3468,57.0202 62.4798,57.0322 62.6108,57.0542 C63.3508,57.1782 63.9908,57.6552 64.3248,58.3272 C64.4888,58.6542 64.5718,59.0062 64.5718,59.3752 C64.5718,60.6742 63.5158,61.7292 62.2168,61.7292" id="Fill-23" fill="#6AB12E" mask="url(#mask-2)"></path>
                <path d="M62.207,16.3357 L62.218,16.3357 C63.505,16.3357 64.552,17.3837 64.552,18.6697 C64.552,19.0337 64.469,19.3847 64.307,19.7097 C63.986,20.3527 63.376,20.8187 62.675,20.9587 C62.524,20.9877 62.371,21.0027 62.22,21.0027 L62.208,21.0027 C62.058,21.0027 61.906,20.9877 61.76,20.9577 C61.059,20.8177 60.448,20.3517 60.128,19.7097 C59.966,19.3847 59.884,19.0337 59.884,18.6697 C59.884,17.3877 60.927,16.3417 62.207,16.3357" id="Fill-24" fill="#185B9A" mask="url(#mask-2)"></path>
                <path d="M49.2295,0.1716 L49.3345,0.1366 C49.5325,0.0756 49.7375,0.0456 49.9445,0.0456 C50.7585,0.0456 51.5065,0.5226 51.8505,1.2636 C52.0405,1.7446 61.8645,27.0966 61.9635,27.3546 L62.2115,27.9926 L72.3175,1.4926 L72.3235,1.4776 C72.3485,1.3956 72.3795,1.3136 72.4165,1.2336 C72.7565,0.4836 73.5095,-0.0004 74.3325,-0.0004 C74.5345,-0.0004 74.7365,0.0276 74.9265,0.0856 L75.0705,0.1336 C75.8885,0.4396 76.4365,1.2316 76.4365,2.1046 C76.4365,2.3306 76.3995,2.5576 76.3275,2.7746 C76.1325,3.2846 63.9185,34.6456 63.7245,35.1336 C63.4495,35.7076 62.8605,36.0826 62.2235,36.0896 L62.2055,36.0906 L62.1905,36.0896 C61.5295,36.0846 60.9305,35.6906 60.6655,35.0876 L60.6635,35.0826 C60.5375,34.7626 48.1175,3.2496 47.9565,2.8326 C47.8795,2.6106 47.8425,2.3806 47.8425,2.1476 C47.8425,1.2666 48.3995,0.4716 49.2295,0.1716" id="Fill-25" fill="#185B9A" mask="url(#mask-2)"></path>
                <path d="M34.293,24.5935 C34.756,24.7975 54.562,33.2035 54.896,33.3445 C55.035,33.3955 55.183,33.4205 55.333,33.4205 C55.677,33.4205 56.001,33.2875 56.245,33.0435 C56.49,32.7995 56.626,32.4735 56.626,32.1275 C56.626,32.0035 56.606,31.8815 56.572,31.7625 C56.403,31.3535 51.266,19.2655 51.214,19.1425 L47.839,11.1805 C47.821,11.1435 47.806,11.1125 47.79,11.0815 C47.671,10.8715 47.499,10.6975 47.288,10.5775 C47.092,10.4665 46.867,10.4065 46.64,10.4065 C46.452,10.4065 46.269,10.4465 46.097,10.5245 C46.023,10.5565 45.952,10.5975 45.885,10.6455 C45.532,10.8925 45.323,11.2955 45.323,11.7235 C45.323,11.8435 45.339,11.9645 45.371,12.0805 C45.585,12.5925 52.511,28.8525 52.581,29.0165 L52.837,29.6165 L52.236,29.3625 C52.07,29.2915 35.704,22.3375 35.377,22.2015 C35.233,22.1495 35.083,22.1225 34.929,22.1225 C34.203,22.1225 33.612,22.7135 33.612,23.4405 C33.612,23.6625 33.671,23.8855 33.778,24.0795 C33.899,24.2965 34.077,24.4755 34.293,24.5935" id="Fill-26" fill="#185B9A" mask="url(#mask-2)"></path>
                <path d="M78.7627,53.8952 C78.7627,54.8082 78.0227,55.5472 77.1107,55.5472 C76.1987,55.5472 75.4587,54.8082 75.4587,53.8952 C75.4587,52.9832 76.1987,52.2452 77.1107,52.2452 C78.0227,52.2452 78.7627,52.9832 78.7627,53.8952" id="Fill-27" fill="#6AB12E" mask="url(#mask-2)"></path>
                <path d="M78.7158,24.112 C78.7158,25.024 77.9778,25.763 77.0648,25.763 C76.1528,25.763 75.4128,25.024 75.4128,24.112 C75.4128,23.2 76.1528,22.46 77.0648,22.46 C77.9778,22.46 78.7158,23.2 78.7158,24.112" id="Fill-28" fill="#6AB12E" mask="url(#mask-2)"></path>
                <path d="M49.0791,24.073 C49.0791,24.985 48.3401,25.725 47.4271,25.725 C46.5151,25.725 45.7761,24.985 45.7761,24.073 C45.7761,23.161 46.5151,22.421 47.4271,22.421 C48.3401,22.421 49.0791,23.161 49.0791,24.073" id="Fill-29" fill="#185B9A" mask="url(#mask-2)"></path>
                <path d="M46.939,119.147 L50.74,119.147 L50.74,118.618 L46.939,118.618 L46.939,119.147 Z M46.939,122.086 L50.74,122.086 L50.74,121.553 L46.939,121.553 L46.939,122.086 Z M54.102,115.655 L54.102,113.061 L46.986,113.061 L46.426,111.289 L43.845,111.289 L43.845,113.061 L34.849,113.061 L34.849,131.192 L37.438,131.192 L37.438,115.655 L44.351,115.655 L44.351,116.216 L37.997,116.216 L37.997,118.618 L44.351,118.618 L44.351,119.147 L37.997,119.147 L37.997,121.553 L44.351,121.553 L44.351,122.086 L37.997,122.086 L37.997,124.489 L44.351,124.489 L44.351,128.964 L43.177,128.964 L42.586,131.192 L46.938,131.192 L46.938,124.489 L53.323,124.489 L53.331,124.489 L53.331,121.553 L54.102,121.553 L54.102,119.147 L53.331,119.147 L53.331,116.216 L46.938,116.216 L46.938,115.655 L54.102,115.655 Z" id="Fill-30" fill="#185B9A" mask="url(#mask-2)"></path>
                <path d="M40.0816,127.1526 C40.4076,127.3726 40.9976,127.4826 41.8536,127.4826 L43.4406,127.4826 L43.4406,125.6436 L42.6796,125.6436 C42.1096,125.6436 41.6916,125.5346 41.4036,125.3206 L41.0156,125.0256 L37.9506,125.0256 L39.2946,126.4766 C39.4986,126.7006 39.7616,126.9256 40.0816,127.1526" id="Fill-31" fill="#185B9A" mask="url(#mask-2)"></path>
                <path d="M40.5938,128.0612 L39.8098,128.8812 C39.5698,129.1232 39.1568,129.2442 38.5508,129.2442 L37.9498,129.2442 L37.9498,131.0552 L39.1468,131.0552 C39.7228,131.0552 40.2528,131.0012 40.7488,130.8832 C41.2468,130.7602 41.7228,130.4142 42.1958,129.8342 L43.6268,128.0612 L40.5938,128.0612 Z" id="Fill-32" fill="#185B9A" mask="url(#mask-2)"></path>
                <path d="M49.8237,125.321 C49.5457,125.534 49.1157,125.644 48.5577,125.644 L47.7867,125.644 L47.7867,127.482 L49.3817,127.482 C50.2367,127.482 50.8207,127.373 51.1527,127.153 C51.4727,126.926 51.7367,126.701 51.9407,126.476 L53.2837,125.025 L50.2137,125.025 L49.8237,125.321 Z" id="Fill-33" fill="#185B9A" mask="url(#mask-2)"></path>
                <path d="M51.4243,128.8816 L50.6403,128.0616 L47.6003,128.0616 L49.0383,129.8346 C49.5063,130.4146 49.9873,130.7596 50.4843,130.8836 C50.9823,131.0016 51.5103,131.0546 52.0873,131.0546 L53.2833,131.0546 L53.2833,129.2436 L52.6873,129.2436 C52.0783,129.2436 51.6593,129.1226 51.4243,128.8816" id="Fill-34" fill="#185B9A" mask="url(#mask-2)"></path>
            </g>
        </g>
    </g>
</svg>